<svg data-name="Capa 1" xmlns="http://www.w3.org/2000/svg" viewBox="0 0 61.41 61.41"><rect x="31.42" y="23.2" width="10.55" height="2.58" rx="1.29" transform="rotate(90 36.695 24.495)"/><path d="M42 50h-7.81a7.36 7.36 0 0 1-3.22 4.38 7.19 7.19 0 0 1-4 1.11 7.35 7.35 0 0 1-1.97-.22 7 7 0 0 1-1.76-.76 7.63 7.63 0 0 1-1.48-1.17 7.24 7.24 0 0 1-1.16-1.54 7.72 7.72 0 0 1-.7-1.8h-1.82a7.61 7.61 0 0 1-1.68-15c.35-.08.7-.11 1.05-.17h.18a.91.91 0 0 0 0-.17c-.46-2.34-.93-4.68-1.39-7l-1.35-6.82-1.32-6.68a5.61 5.61 0 0 0-1.13-2.48 5.43 5.43 0 0 0-3.55-2A6.11 6.11 0 0 0 8 9.54H5a2.21 2.21 0 0 1-.57-.06 1.83 1.83 0 0 1 .23-3.59h3.48A9.06 9.06 0 0 1 15 9a8.81 8.81 0 0 1 2 4l.07.25h39.62a1.9 1.9 0 0 1 1.58 1.58 2 2 0 0 1 0 .74c-.48 2.37-1 4.75-1.43 7.13l-1.29 6.47c-.31 1.55-.62 3.1-.94 4.65a1.75 1.75 0 0 1-1.34 1.42 2.22 2.22 0 0 1-.45.07l-34.2 3.12-.92.08a3.93 3.93 0 0 0-.59 7.77 3.71 3.71 0 0 0 .74.07h2c.1-.08.1-.21.13-.31a7.29 7.29 0 0 1 3.19-4.11 7.18 7.18 0 0 1 3.33-1.06 7.34 7.34 0 0 1 7.55 5.22c0 .08 0 .16.07.24a.85.85 0 0 0 .35 0h7.43c.12-.09.12-.22.15-.32a7.27 7.27 0 0 1 3.1-4.01 7.17 7.17 0 0 1 3.45-1.13 7.36 7.36 0 1 1-6.54 9.52ZM18 16.88v.07q1.72 8.6 3.46 17.2a2.44 2.44 0 0 0 .06.26h.12l29.46-2.63.14-.05q1.47-7.36 2.93-14.73s0 0 0-.06H18Zm9 34.99a3.68 3.68 0 1 0-3.69-3.65A3.69 3.69 0 0 0 27 51.87Zm22 0a3.68 3.68 0 1 0-3.67-3.7 3.68 3.68 0 0 0 3.74 3.7Z"/><rect x="31.42" y="23.2" width="10.55" height="2.58" rx="1.29" transform="rotate(-180 36.695 24.495)"/></svg>