<svg id="Capa_1" data-name="Capa 1" xmlns="http://www.w3.org/2000/svg" viewBox="0 0 61.41 61.41"><defs><style>.cls-1{fill:#484848}</style></defs><path class="cls-1" d="M8.13 17.82 7 17.77a1 1 0 0 1-1.09-1.11V5.09A1.09 1.09 0 0 1 7.08 3.9h3.38a1.05 1.05 0 0 1 1.15 1.17c0 .77-.53 1.07-1.24 1.09H8.18v8.34c0 .77.15 1.07 1 1.06 4.18-.05 8.37 0 12.55 0a2.21 2.21 0 0 1 1.34.48 1.1 1.1 0 0 1 .07 1.08 1.9 1.9 0 0 1-1.26.6c-3.34.05-6.69 0-10 0H10.5V19c0 4.08-.12 8.16 0 12.23.15 3.8-.73 7.43-1.44 11.1-.2 1.06-.41 2.13-.65 3.36.51 0 .93.06 1.34.06h12.7c.37 0 .81-.09 1.07.08s.92.72.88 1-.56.81-.94 1.13c-.15.13-.49 0-.75 0H7.65c-1.52 0-1.91-.48-1.62-1.94q1-5.07 2.05-10.15a7.16 7.16 0 0 0 .13-1.3V18.63c0-.14-.05-.43-.08-.81ZM5.79 56.3h16.65c.32 0 .74-.1 1 .06.41.3 1 .74 1 1.16s-.61.74-1 1c-.17.12-.49 0-.75 0H5.37c-1.49 0-1.71-.31-1.83-1.76-.16-2 .62-3.71 1.28-5.47a1.72 1.72 0 0 1 1.33-.8c5.64-.06 11.28 0 16.92 0 .76 0 1.35.26 1.37 1.06s-.57 1.16-1.38 1.16H8.54c-2.22 0-1.7-.37-2.42 1.76a12.32 12.32 0 0 0-.33 1.83Z"/><path class="cls-1" d="M21 8.48c2.42.27 2.42.27 2.42-1.91 0-2.69 0-2.69 2.73-2.69h2.84c.74 0 1.31.34 1.28 1.16s-.57 1.12-1.33 1.11h-3.33v3.12c0 1.22-.28 1.49-1.47 1.51s-2.62 0-3.93 0c-1.14 0-1.48-.35-1.51-1.51v-3h-3.57v3.1c0 1.04-.42 1.48-1.44 1.45H11.4a1 1 0 0 1-1.08-1.1c0-.7.41-1 1.09-1.1 1.51-.15 1.5-.16 1.5-1.66 0-2.91-.34-3.1 3.05-3h3.38C20.62 3.9 21 4.25 21 5.5v2.98Z"/><path d="M43.46 26.9a24.06 24.06 0 0 0 3.85 7.93c1.32 1.77 2.92 3.33 4.31 5.06a3.6 3.6 0 0 1 .78 1.9c.11 1.59.05 3.2 0 4.8 0 1.11-.39 1.5-1.52 1.5-7.13 0-14.26 0-21.39-.06a2.52 2.52 0 0 1-1.62-.87 22.75 22.75 0 0 1-5.31-12.57c-1.38-13.57 3.9-24 15.19-31.47a4.12 4.12 0 0 1 2.29-.3c.28 0 .56.56.8.89a.62.62 0 0 1 0 .43c-.55 2.51.77 3.88 2.72 5.25a88.86 88.86 0 0 1 13.69 12.23 1.75 1.75 0 0 1 .39 2.24q-.84 1.65-1.56 3.36a1.64 1.64 0 0 1-1.69 1.07 4.71 4.71 0 0 1-3.42-1 5.11 5.11 0 0 0-5.33-.83 17.24 17.24 0 0 1-2.18.44ZM38.57 5.37c-.33.2-.58.33-.81.49-8.29 5.77-12.76 13.7-13.17 23.78A23.21 23.21 0 0 0 29 45a1.79 1.79 0 0 0 1.62.82h18.24c.39 0 .78 0 1.29-.06 0-.94-.06-1.81 0-2.66a3 3 0 0 0-1-2.58 29.51 29.51 0 0 1-7.79-12.82 2.12 2.12 0 0 0-1.47-1.5 8.33 8.33 0 0 1-5.37-6.63 1.59 1.59 0 0 1 .62-1.3c.28-.17.92.1 1.31.34.21.12.23.58.31.89a6.33 6.33 0 0 0 7.59 4.86 7.71 7.71 0 0 0 4.05-2.63 1.05 1.05 0 0 1 1.6-.17 1.07 1.07 0 0 1 .11 1.57l-.54.72c.76.41 1.47.76 2.14 1.17 2.26 1.37 2.22 1.37 3.34-1a1.36 1.36 0 0 0-.29-1.79 90.21 90.21 0 0 0-13.61-11.87C39.41 9.15 38.21 8 38.67 5.72c.01-.06-.04-.13-.1-.35ZM52.64 56.22a8.88 8.88 0 0 0-.57-1.37c-.51-.84-1.08-1.64-1.61-2.47a1.13 1.13 0 1 1 1.87-1.25 16.67 16.67 0 0 1 2.05 3.2 8.34 8.34 0 0 1 .2 3.49c0 .3-.95.72-1.46.73-3.46.06-20.49 0-25.55 0-1.56 0-1.75-.31-1.91-1.81-.22-2.27 1.12-3.93 2-5.75.14-.29.73-.48 1.12-.49h19.1c.82 0 1.41.3 1.38 1.16s-.7 1.06-1.48 1.06c-5.5 0-11 .08-16.49 0-1.62 0-2.51.43-3 1.92-.15.5-.31 1-.51 1.62Z"/><path d="M43.23 15.66c-.43.26-.84.69-1.3.75-.68.09-1.06-.4-1-1.09s.44-1.16 1.11-1c.45.09.83.54 1.25.83Z"/></svg>