<svg xmlns="http://www.w3.org/2000/svg" viewBox="0 0 286.88 61.41"><defs><style>.cls-9{fill:#bababa}.cls-3{letter-spacing:.07em}.cls-10{fill:#484848}</style></defs><g id="Capa_2" data-name="Capa 2"><g id="Capa_1-2" data-name="Capa 1"><path d="M0 0h61.41v61.41H0zM64.24 0h222.65v61.41H64.24z"/><text transform="translate(79.08 31.79)" style="font-size:28.06px;fill:#fff;font-family:KronaOne-Regular,Krona One;letter-spacing:-.01em">Jaquemate</text><text transform="translate(77.99 50.59)" style="fill:#bababa;font-size:13px;font-family:Montserrat-SemiBold,Montserrat;font-weight:600;letter-spacing:.06em">T<tspan class="cls-3" x="8.57" y="0">ie</tspan><tspan x="22.23" y="0" style="letter-spacing:.08em">n</tspan><tspan x="32.11" y="0" style="letter-spacing:.07em">da </tspan><tspan x="55.25" y="0" style="letter-spacing:.07em">L</tspan><tspan class="cls-3" x="63.88" y="0">udo</tspan><tspan x="92.78" y="0" style="letter-spacing:.05em">t</tspan><tspan x="98.97" y="0" style="letter-spacing:.07em">eca</tspan></text><path class="cls-9" d="M12.35 20.23h-.9a.84.84 0 0 1-.88-.91V9.91a.88.88 0 0 1 .93-1h2.75a.86.86 0 0 1 .94.95c0 .62-.44.87-1 .88s-1.12 0-1.79 0v6.82c0 .63.12.87.83.86h10.21a1.78 1.78 0 0 1 1.09.4.87.87 0 0 1 .06.87 1.57 1.57 0 0 1-1 .49h-9.32v1c0 3.32-.1 6.64 0 10a39.21 39.21 0 0 1-1.16 9c-.17.86-.34 1.73-.54 2.73.42 0 .76.05 1.1.05H24a1.84 1.84 0 0 1 .86.07c.32.2.75.59.72.84s-.46.66-.77.92c-.12.1-.4 0-.6 0H12c-1.23 0-1.55-.39-1.31-1.58.55-2.75 1.11-5.5 1.66-8.25a5.45 5.45 0 0 0 .06-.96V21c0-.23-.04-.46-.06-.77ZM10.44 51.52H24c.27 0 .61-.08.78 0 .34.25.77.61.81.95s-.5.6-.83.84c-.14.1-.4 0-.61 0h-14c-1.22 0-1.4-.25-1.49-1.43a10.09 10.09 0 0 1 1-4.44 1.41 1.41 0 0 1 1.08-.66H24.5c.61 0 1.09.21 1.11.86s-.46.95-1.12.95H12.68c-1.8 0-1.38-.3-2 1.43a11.16 11.16 0 0 0-.24 1.5Z"/><path class="cls-9" d="M22.8 12.63c2 .22 2 .22 2-1.55 0-2.19 0-2.19 2.23-2.19h2.3c.76 0 1.07.28 1.05.94s-.47.91-1.09.91h-2.73v2.53c0 1-.23 1.22-1.19 1.23h-3.2c-.92 0-1.2-.29-1.22-1.23s0-1.59 0-2.46H18v2.52c0 .85-.34 1.2-1.17 1.17h-1.86a.82.82 0 0 1-.89-.89c0-.58.34-.84.9-.9 1.22-.12 1.22-.13 1.22-1.35 0-2.36-.28-2.52 2.47-2.47h2.75c1 0 1.33.3 1.34 1.32.05.79.04 1.58.04 2.42Z"/><path class="cls-10" d="M41.08 27.61a19.43 19.43 0 0 0 3.13 6.45c1.07 1.44 2.37 2.71 3.5 4.11a3 3 0 0 1 .64 1.55c.09 1.29 0 2.6 0 3.9 0 .91-.32 1.23-1.23 1.23-5.8 0-11.6 0-17.4-.06a2 2 0 0 1-1.31-.7 18.45 18.45 0 0 1-4.31-10.22c-1.12-11 3.18-19.52 12.36-25.6A3.36 3.36 0 0 1 38.32 8c.23 0 .45.45.65.72a.51.51 0 0 1 0 .35c-.45 2 .62 3.16 2.21 4.27a72.56 72.56 0 0 1 11.08 9.94 1.42 1.42 0 0 1 .32 1.83c-.46.89-.88 1.81-1.27 2.73a1.32 1.32 0 0 1-1.37.87 3.84 3.84 0 0 1-2.78-.84 4.15 4.15 0 0 0-4.34-.68 15.56 15.56 0 0 1-1.74.42Zm-4-17.51c-.27.16-.47.27-.66.4a23.69 23.69 0 0 0-10.69 19.34 18.86 18.86 0 0 0 3.59 12.46 1.45 1.45 0 0 0 1.32.67h14.83c.31 0 .63 0 1.05-.05 0-.76-.05-1.47 0-2.17a2.39 2.39 0 0 0-.84-2.09 23.92 23.92 0 0 1-6.33-10.43A1.77 1.77 0 0 0 38.16 27a6.72 6.72 0 0 1-4.36-5.39 1.24 1.24 0 0 1 .5-1.05c.22-.14.75.08 1.06.27s.19.47.25.73a5.16 5.16 0 0 0 6.18 3.95 6.27 6.27 0 0 0 3.29-2.14.91.91 0 1 1 1.41 1.14c-.13.19-.27.37-.43.59.61.33 1.19.62 1.74.95 1.83 1.12 1.8 1.11 2.71-.78a1.09 1.09 0 0 0-.24-1.45 72.81 72.81 0 0 0-11.07-9.66c-1.41-1-2.39-1.95-2-3.77-.01-.05-.05-.11-.1-.29ZM48.54 51.45a7.18 7.18 0 0 0-.46-1.11c-.41-.68-.88-1.33-1.31-2A.89.89 0 0 1 47 47a.9.9 0 0 1 1.3.37 13.19 13.19 0 0 1 1.7 2.55 6.75 6.75 0 0 1 .16 2.84c0 .24-.77.58-1.19.59H28.2c-1.27 0-1.43-.26-1.55-1.48-.19-1.84.91-3.19 1.65-4.68a1.15 1.15 0 0 1 .9-.39h15.54c.66 0 1.15.25 1.12.94s-.57.87-1.21.87c-4.46 0-8.93.06-13.4 0-1.32 0-2.05.35-2.41 1.56-.12.41-.26.81-.42 1.32Z"/><path class="cls-10" d="M40.89 18.47c-.35.21-.68.56-1.06.61-.55.07-.86-.33-.84-.89s.36-.94.9-.83c.37.08.68.44 1 .68Z"/></g></g></svg>